<?xml version="1.0" encoding="UTF-8" standalone="no"?>
<!-- Created with Inkscape (http://www.inkscape.org/) -->

<svg
   width="230mm"
   height="230mm"
   viewBox="0 0 230 230"
   version="1.1"
   id="svg1"
   inkscape:export-filename="cheesestick.png"
   inkscape:export-xdpi="56.54261"
   inkscape:export-ydpi="56.54261"
   inkscape:version="1.3.2 (091e20e, 2023-11-25)"
   sodipodi:docname="cheese.svg"
   xmlns:inkscape="http://www.inkscape.org/namespaces/inkscape"
   xmlns:sodipodi="http://sodipodi.sourceforge.net/DTD/sodipodi-0.dtd"
   xmlns="http://www.w3.org/2000/svg"
   xmlns:svg="http://www.w3.org/2000/svg">
  <sodipodi:namedview
     id="namedview1"
     pagecolor="#ffffff"
     bordercolor="#000000"
     borderopacity="0.25"
     inkscape:showpageshadow="2"
     inkscape:pageopacity="0.0"
     inkscape:pagecheckerboard="0"
     inkscape:deskcolor="#d1d1d1"
     inkscape:document-units="mm"
     inkscape:zoom="0.40328427"
     inkscape:cx="448.81492"
     inkscape:cy="329.79218"
     inkscape:window-width="1648"
     inkscape:window-height="1041"
     inkscape:window-x="69"
     inkscape:window-y="43"
     inkscape:window-maximized="1"
     inkscape:current-layer="layer1" />
  <defs
     id="defs1" />
  <g
     inkscape:label="Layer 1"
     inkscape:groupmode="layer"
     id="layer1">
    <g
       id="g19"
       style="display:inline;fill:#ffffff;stroke:#000000;stroke-width:1.98714;stroke-dasharray:none"
       transform="matrix(-1.2659323,0,0,1.2659337,248.47862,-40.164354)">
      <path
         style="display:inline;fill:#ffffff;stroke:#ffffff;stroke-width:1.5824;stroke-dasharray:none;stroke-opacity:1"
         d="m 50.68039,83.715719 c 0,0 -2.041014,-0.553721 -1.361632,-2.773691 0.621018,-2.029257 1.53706,-1.742651 1.957317,-1.759461 0,0 0.726475,0.02008 1.021134,0.28232 0.405572,0.360955 0.418054,1.060592 0.445081,1.70925"
         id="path17"
         transform="translate(1.0256267e-6)"
         sodipodi:nodetypes="cscsc" />
      <path
         style="fill:#784421;stroke:#784421;stroke-width:1.5824"
         d="M 99.163231,101.25199 47.939056,81.155285 c 0,0 -0.515611,-0.244511 -0.152767,-1.063726 0.362844,-0.819215 0.689517,-0.655374 0.689517,-0.655374 l 52.434114,20.567895 z"
         id="path1"
         sodipodi:nodetypes="cczccc" />
      <g
         id="g14"
         style="display:inline;fill:#aa8800"
         transform="translate(-0.68518669,0.34259297)">
        <path
           id="path12"
           style="fill:#ffd42a;stroke:none;stroke-width:1.5824"
           d="m 52.556729,122.27391 c 2.356273,0.009 5.504864,0.39915 7.155825,2.13553 l -16.954902,2.34796 6.908145,-4.29469 c 0.348586,-0.0617 1.477168,-0.19395 2.890932,-0.1888 z m 6.92559,2.50223 0.06233,12.37254 -16.42865,3.17986 v -13.55188 z" />
        <path
           style="display:inline;fill:none;stroke:#e9b700;stroke-width:1.5824;stroke-dasharray:none;stroke-opacity:1"
           d="m 59.544697,137.14873 -12.516962,2.42263 -3.911777,0.75712 v -13.5518 l 16.366307,-2.0006 z"
           id="path8"
           sodipodi:nodetypes="cccccc"
           transform="translate(1.0256267e-6)" />
        <path
           style="display:inline;fill:none;stroke:#e9b700;stroke-width:1.5824;stroke-dasharray:none;stroke-opacity:1"
           d="m 59.712592,124.40938 c -2.64154,-2.77821 -9.117194,-2.11119 -10.046759,-1.94658 l -4.511939,2.8049 -2.396328,1.4897"
           id="path10"
           sodipodi:nodetypes="cccc"
           transform="translate(1.0256267e-6)" />
      </g>
      <path
         style="fill:none;stroke:#ffffff;stroke-width:1.5824"
         d="m 51.087696,123.5786 -3.648397,-0.92501 c -8.76e-4,-0.007 -1.313561,-0.36827 -1.565247,0.32065 -0.251685,0.68893 -0.07102,2.19837 -0.07102,2.19837"
         id="path11"
         sodipodi:nodetypes="cczc" />
      <path
         style="display:inline;fill:none;stroke:#ffffff;stroke-width:1.58239;stroke-dasharray:none"
         d="m 52.05833,79.268109 c 0,0 1.019843,1.234814 0.546107,2.822005 -0.400182,1.340759 -1.733628,1.534854 -1.733628,1.534854 l -0.03362,39.889262 4.933016,1.18188 c 0.235559,0.10495 0.363986,0.17214 0.384334,0.63727 v 13.56872 c 0,0 0,0.95407 -0.596293,0.95407 -0.596293,0 -4.782441,-0.81412 -4.782441,-0.81412"
         id="path7"
         sodipodi:nodetypes="cscccccsc"
         transform="translate(1.0256267e-6)" />
      <path
         style="display:inline;fill:none;stroke:#e9b700;stroke-width:1.5824;stroke-dasharray:none;stroke-opacity:1"
         d="m 47.009925,124.04456 -4.925298,3.06564"
         id="path14"
         sodipodi:nodetypes="cc" />
      <path
         style="display:inline;fill:none;stroke:#e9b700;stroke-width:1.5824;stroke-dasharray:none;stroke-opacity:1"
         d="m 55.772199,137.87127 -12.656241,2.45721 z"
         id="path15"
         sodipodi:nodetypes="ccc"
         transform="translate(-0.6851846,0.34259586)" />
      <path
         style="fill:#ffffff;stroke:#ffffff;stroke-width:1.5824;stroke-dasharray:none;stroke-opacity:1"
         d="m 52.714877,83.14037 c 0,0 0.13512,0.926539 0.791419,1.177477 0.656299,0.250938 1.138872,-0.405361 1.138872,-0.405361 0,0 0.09652,0.887933 0.907237,1.235385 0.810722,0.347452 1.409113,-0.347452 1.409113,-0.347452 0.603342,-0.535902 1.091953,-3.326279 0.183219,-3.779477 -0.947804,-0.472683 -2.027322,0.800706 -2.027322,0.800706 0,0 0.246544,-1.52464 -0.600114,-1.90038 -0.857964,-0.380758 -1.750898,1.031529 -1.750898,1.031529"
         id="path18"
         sodipodi:nodetypes="cscscscsc" />
    </g>
  </g>
</svg>
