<?xml version="1.0" encoding="UTF-8" standalone="no"?>
<!-- Created with Inkscape (http://www.inkscape.org/) -->

<svg
   width="200mm"
   height="200mm"
   viewBox="0 0 200 200"
   version="1.1"
   id="svg1"
   xml:space="preserve"
   sodipodi:docname="transfem.svg"
   inkscape:version="1.3.2 (091e20e, 2023-11-25)"
   inkscape:export-filename="drawing.png"
   inkscape:export-xdpi="96"
   inkscape:export-ydpi="96"
   xmlns:inkscape="http://www.inkscape.org/namespaces/inkscape"
   xmlns:sodipodi="http://sodipodi.sourceforge.net/DTD/sodipodi-0.dtd"
   xmlns:xlink="http://www.w3.org/1999/xlink"
   xmlns="http://www.w3.org/2000/svg"
   xmlns:svg="http://www.w3.org/2000/svg"><sodipodi:namedview
     id="namedview1"
     pagecolor="#ffffff"
     bordercolor="#000000"
     borderopacity="0.25"
     inkscape:showpageshadow="2"
     inkscape:pageopacity="0.0"
     inkscape:pagecheckerboard="0"
     inkscape:deskcolor="#d1d1d1"
     inkscape:document-units="mm"
     inkscape:zoom="0.62694931"
     inkscape:cx="398.75632"
     inkscape:cy="402.74388"
     inkscape:window-width="1696"
     inkscape:window-height="1041"
     inkscape:window-x="0"
     inkscape:window-y="43"
     inkscape:window-maximized="0"
     inkscape:current-layer="layer1" /><defs
     id="defs1"><linearGradient
       id="linearGradient1"
       inkscape:collect="always"><stop
         style="stop-color:#00bdfb;stop-opacity:1;"
         offset="0"
         id="stop1" /><stop
         style="stop-color:#f9d5ff;stop-opacity:1;"
         offset="0.15391459"
         id="stop13" /><stop
         style="stop-color:#fbb7ef;stop-opacity:1;"
         offset="0.33051601"
         id="stop14" /><stop
         style="stop-color:#f191cb;stop-opacity:1;"
         offset="0.5"
         id="stop7" /><stop
         style="stop-color:#fbb7ef;stop-opacity:1;"
         offset="0.65569395"
         id="stop15" /><stop
         style="stop-color:#f9d5ff;stop-opacity:1;"
         offset="0.83407474"
         id="stop16" /><stop
         style="stop-color:#00bdfb;stop-opacity:1;"
         offset="1"
         id="stop2" /></linearGradient><linearGradient
       inkscape:collect="always"
       xlink:href="#linearGradient1"
       id="linearGradient17"
       gradientUnits="userSpaceOnUse"
       gradientTransform="matrix(0,-0.57726523,0.57726523,0,42.273472,157.72652)"
       x1="0"
       y1="100"
       x2="200"
       y2="100"
       spreadMethod="pad" /></defs><g
     inkscape:label="Layer 1"
     inkscape:groupmode="layer"
     id="layer1"><g
       id="g18"
       transform="matrix(0.89534732,-0.08169316,0.08169316,0.89534732,-3.7289355,13.447021)"><path
         style="opacity:1;fill:#00bdfb;fill-opacity:1;stroke-width:2.5"
         d="m 36.427153,27.33821 v 5.322483 c 8.643908,-1.574655 17.045548,-3.419182 25.305136,0.276395 8.631851,4.316229 18.406209,2.340403 27.516475,0.771974 V 28.386577 C 80.764584,29.507884 71.579966,32.072025 63.455543,28.266651 55.016015,23.681677 45.432599,25.747847 36.427153,27.33821 Z"
         id="path18"
         sodipodi:nodetypes="ccsccsc" /><path
         style="opacity:1;fill:#f9d5ff;fill-opacity:1;stroke-width:2.5"
         d="m 36.427153,32.554616 v 5.322483 c 8.643908,-1.574655 17.045548,-3.419182 25.305136,0.276395 8.631851,4.316229 18.406209,2.340403 27.516475,0.771974 V 33.602983 C 80.764584,34.72429 71.579966,37.288431 63.455543,33.483057 55.016015,28.898083 45.432599,30.964253 36.427153,32.554616 Z"
         id="path19"
         sodipodi:nodetypes="ccsccsc" /><path
         style="opacity:1;fill:#fbb7ef;fill-opacity:1;stroke-width:2.5"
         d="m 36.427153,37.786401 v 5.322483 c 8.643908,-1.574655 17.045548,-3.419182 25.305136,0.276395 8.631851,4.316229 18.406209,2.340403 27.516475,0.771974 v -5.322485 c -8.48418,1.121307 -17.668798,3.685448 -25.793221,-0.119926 -8.439528,-4.584974 -18.022944,-2.518804 -27.02839,-0.928441 z"
         id="path20"
         sodipodi:nodetypes="ccsccsc" /><path
         style="opacity:1;fill:#f191cb;fill-opacity:1;stroke-width:2.5"
         d="m 36.468131,42.990602 v 5.322483 c 8.643908,-1.574655 17.045548,-3.419182 25.305136,0.276395 8.631851,4.316229 18.406209,2.340403 27.516475,0.771974 v -5.322485 c -8.48418,1.121307 -17.668798,3.685448 -25.793221,-0.119926 -8.439528,-4.584974 -18.022944,-2.518804 -27.02839,-0.928441 z"
         id="path21"
         sodipodi:nodetypes="ccsccsc" /><path
         style="opacity:1;fill:#fbb7ef;fill-opacity:1;stroke-width:2.5"
         d="M 36.468131,48.164817 V 53.4873 c 8.643908,-1.574655 17.045548,-3.419182 25.305136,0.276395 8.631851,4.316229 18.406209,2.340403 27.516475,0.771974 v -5.322485 c -8.48418,1.121307 -17.668798,3.685448 -25.793221,-0.119926 -8.439528,-4.584974 -18.022944,-2.518804 -27.02839,-0.928441 z"
         id="path22"
         sodipodi:nodetypes="ccsccsc" /><path
         style="opacity:1;fill:#f9d5ff;fill-opacity:1;stroke-width:2.5"
         d="m 36.468131,53.236001 v 5.322483 c 8.643908,-1.574655 17.045548,-3.419182 25.305136,0.276395 8.631851,4.316229 18.406209,2.340403 27.516475,0.771974 v -5.322485 c -8.48418,1.121307 -17.668798,3.685448 -25.793221,-0.119926 -8.439528,-4.584974 -18.022944,-2.518804 -27.02839,-0.928441 z"
         id="path23"
         sodipodi:nodetypes="ccsccsc" /><path
         style="opacity:1;fill:#00bdfb;fill-opacity:1;stroke-width:2.5"
         d="m 36.468131,58.424667 v 5.322483 c 8.643908,-1.574655 17.045548,-3.419182 25.305136,0.276395 8.631851,4.316229 18.406209,2.340403 27.516475,0.771974 v -5.322485 c -8.48418,1.121307 -17.668798,3.685448 -25.793221,-0.119926 -8.439528,-4.584974 -18.022944,-2.518804 -27.02839,-0.928441 z"
         id="path24"
         sodipodi:nodetypes="ccsccsc" /></g><path
       id="rect17"
       style="display:inline;opacity:1;fill:url(#linearGradient17);stroke-width:1.44316"
       d="M 83.206807 42.273389 C 83.492723 45.360361 83.779475 48.447233 84.064119 51.534322 C 98.225015 51.438061 112.38832 51.516468 126.54938 51.481612 C 130.05488 51.413712 133.62282 52.040311 136.79992 53.555387 C 142.91661 56.480681 147.40739 62.677163 148.28707 69.332719 C 148.61122 84.867546 148.47812 100.41014 148.52117 115.94848 C 148.39173 120.52269 148.75754 125.13318 148.37079 129.67064 C 147.85234 137.11893 142.76738 143.90692 135.94416 146.81998 C 133.94315 147.67469 131.98782 148.16913 129.83859 148.31653 C 112.72797 148.61928 95.612672 148.46145 78.500118 148.50411 C 75.733902 148.46251 72.959092 148.57979 70.199333 148.37492 C 64.965635 147.906 59.974038 145.33113 56.572257 141.32419 C 53.60654 137.8756 51.628343 133.41414 51.674882 128.81798 C 51.404984 112.90338 51.516679 96.985713 51.517269 81.06947 C 51.620706 76.835612 51.178628 72.580124 51.887789 68.406677 C 50.675175 68.256283 49.450837 68.220821 48.253902 68.326062 C 46.271681 68.445765 44.340328 68.771863 42.430485 69.191642 C 42.327121 70.209177 42.273389 71.241882 42.273389 72.287577 L 42.273389 127.71262 C 42.273389 144.34035 55.659842 157.72629 72.287577 157.72629 L 127.71262 157.72629 C 144.34035 157.72629 157.72629 144.34035 157.72629 127.71262 L 157.72629 72.287577 C 157.72629 55.659842 144.34035 42.273389 127.71262 42.273389 L 83.206807 42.273389 z " /></g></svg>
